<?xml version="1.0" encoding="UTF-8" standalone="no"?>
<!DOCTYPE svg PUBLIC "-//W3C//DTD SVG 1.1//EN"
 "http://www.w3.org/Graphics/SVG/1.1/DTD/svg11.dtd">
<!-- Generated by graphviz version 2.40.1 (20161225.0304)
 -->
<!-- Title: dependencies Pages: 1 -->
<svg width="1542pt" height="211pt"
 viewBox="0.00 0.00 1542.00 211.00" xmlns="http://www.w3.org/2000/svg" xmlns:xlink="http://www.w3.org/1999/xlink">
<g id="graph0" class="graph" transform="scale(1 1) rotate(0) translate(4 207)">
<title>dependencies</title>
<polygon fill="#ffffff" stroke="transparent" points="-4,4 -4,-207 1538,-207 1538,4 -4,4"/>
<text text-anchor="start" x="746.0091" y="-42.4" font-family="sans-serif" font-weight="bold" font-size="14.00" fill="#000000">Legend</text>
<polygon fill="#ffffb3" stroke="transparent" points="533,-10 533,-30 553,-30 553,-10 533,-10"/>
<text text-anchor="start" x="556.629" y="-15.4" font-family="sans-serif" font-size="14.00" fill="#000000"> &#160;Declarations</text>
<polygon fill="#8dd3c7" stroke="transparent" points="646,-10 646,-30 666,-30 666,-10 646,-10"/>
<text text-anchor="start" x="669.7251" y="-15.4" font-family="sans-serif" font-size="14.00" fill="#000000"> &#160;Module</text>
<polygon fill="#80b1d3" stroke="transparent" points="732,-10 732,-30 752,-30 752,-10 732,-10"/>
<text text-anchor="start" x="755.7812" y="-15.4" font-family="sans-serif" font-size="14.00" fill="#000000"> &#160;Bootstrap</text>
<polygon fill="#fdb462" stroke="transparent" points="829,-10 829,-30 849,-30 849,-10 829,-10"/>
<text text-anchor="start" x="852.6732" y="-15.4" font-family="sans-serif" font-size="14.00" fill="#000000"> &#160;Providers</text>
<polygon fill="#fb8072" stroke="transparent" points="925,-10 925,-30 945,-30 945,-10 925,-10"/>
<text text-anchor="start" x="948.7258" y="-15.4" font-family="sans-serif" font-size="14.00" fill="#000000"> &#160;Exports</text>
<g id="clust1" class="cluster">
<title>cluster_AuthModule</title>
<polygon fill="none" stroke="#000000" stroke-dasharray="1,5" points="8,-70 8,-195 1526,-195 1526,-70 8,-70"/>
</g>
<g id="clust2" class="cluster">
<title>cluster_AuthModule_declarations</title>
<polygon fill="none" stroke="#000000" points="851,-78 851,-130 1518,-130 1518,-78 851,-78"/>
</g>
<g id="clust7" class="cluster">
<title>cluster_AuthModule_imports</title>
<polygon fill="none" stroke="#000000" points="158,-78 158,-130 843,-130 843,-78 158,-78"/>
</g>
<g id="clust10" class="cluster">
<title>cluster_AuthModule_providers</title>
<polygon fill="none" stroke="#000000" points="16,-78 16,-130 150,-130 150,-78 16,-78"/>
</g>
<!-- LoginPageComponent -->
<g id="node1" class="node">
<title>LoginPageComponent</title>
<polygon fill="#ffffb3" stroke="#000000" points="1509.9874,-122 1368.0126,-122 1368.0126,-86 1509.9874,-86 1509.9874,-122"/>
<text text-anchor="middle" x="1439" y="-99.8" font-family="Times,serif" font-size="14.00" fill="#000000">LoginPageComponent</text>
</g>
<!-- AuthModule -->
<g id="node5" class="node">
<title>AuthModule</title>
<polygon fill="#8dd3c7" stroke="#000000" points="761.5482,-187 758.5482,-191 737.5482,-191 734.5482,-187 674.4518,-187 674.4518,-151 761.5482,-151 761.5482,-187"/>
<text text-anchor="middle" x="718" y="-164.8" font-family="Times,serif" font-size="14.00" fill="#000000">AuthModule</text>
</g>
<!-- LoginPageComponent&#45;&gt;AuthModule -->
<g id="edge1" class="edge">
<title>LoginPageComponent&#45;&gt;AuthModule</title>
<path fill="none" stroke="#000000" d="M1439,-122.0109C1439,-144.4852 1439,-180 1439,-180 1439,-180 771.7469,-180 771.7469,-180"/>
<polygon fill="#000000" stroke="#000000" points="771.7469,-176.5001 761.7469,-180 771.7469,-183.5001 771.7469,-176.5001"/>
</g>
<!-- RegisterPageComponent -->
<g id="node2" class="node">
<title>RegisterPageComponent</title>
<polygon fill="#ffffb3" stroke="#000000" points="1349.6965,-122 1194.3035,-122 1194.3035,-86 1349.6965,-86 1349.6965,-122"/>
<text text-anchor="middle" x="1272" y="-99.8" font-family="Times,serif" font-size="14.00" fill="#000000">RegisterPageComponent</text>
</g>
<!-- RegisterPageComponent&#45;&gt;AuthModule -->
<g id="edge2" class="edge">
<title>RegisterPageComponent&#45;&gt;AuthModule</title>
<path fill="none" stroke="#000000" d="M1272,-122.1289C1272,-142.5724 1272,-173 1272,-173 1272,-173 771.9345,-173 771.9345,-173"/>
<polygon fill="#000000" stroke="#000000" points="771.9346,-169.5001 761.9345,-173 771.9345,-176.5001 771.9346,-169.5001"/>
</g>
<!-- LogoutComponent -->
<g id="node3" class="node">
<title>LogoutComponent</title>
<polygon fill="#ffffb3" stroke="#000000" points="1176.7758,-122 1055.2242,-122 1055.2242,-86 1176.7758,-86 1176.7758,-122"/>
<text text-anchor="middle" x="1116" y="-99.8" font-family="Times,serif" font-size="14.00" fill="#000000">LogoutComponent</text>
</g>
<!-- LogoutComponent&#45;&gt;AuthModule -->
<g id="edge3" class="edge">
<title>LogoutComponent&#45;&gt;AuthModule</title>
<path fill="none" stroke="#000000" d="M1116,-122.2667C1116,-140.5552 1116,-166 1116,-166 1116,-166 771.7315,-166 771.7315,-166"/>
<polygon fill="#000000" stroke="#000000" points="771.7315,-162.5001 761.7315,-166 771.7314,-169.5001 771.7315,-162.5001"/>
</g>
<!-- VerifyEmailPageComponent -->
<g id="node4" class="node">
<title>VerifyEmailPageComponent</title>
<polygon fill="#ffffb3" stroke="#000000" points="1037.0169,-122 858.9831,-122 858.9831,-86 1037.0169,-86 1037.0169,-122"/>
<text text-anchor="middle" x="948" y="-99.8" font-family="Times,serif" font-size="14.00" fill="#000000">VerifyEmailPageComponent</text>
</g>
<!-- VerifyEmailPageComponent&#45;&gt;AuthModule -->
<g id="edge4" class="edge">
<title>VerifyEmailPageComponent&#45;&gt;AuthModule</title>
<path fill="none" stroke="#000000" d="M948,-122.0091C948,-138.0494 948,-159 948,-159 948,-159 771.8026,-159 771.8026,-159"/>
<polygon fill="#000000" stroke="#000000" points="771.8027,-155.5001 761.8026,-159 771.8026,-162.5001 771.8027,-155.5001"/>
</g>
<!-- CommonModule -->
<g id="node6" class="node">
<title>CommonModule</title>
<polygon fill="#8dd3c7" stroke="#000000" points="834.6681,-122 831.6681,-126 810.6681,-126 807.6681,-122 723.3319,-122 723.3319,-86 834.6681,-86 834.6681,-122"/>
<text text-anchor="middle" x="779" y="-99.8" font-family="Times,serif" font-size="14.00" fill="#000000">CommonModule</text>
</g>
<!-- CommonModule&#45;&gt;AuthModule -->
<g id="edge5" class="edge">
<title>CommonModule&#45;&gt;AuthModule</title>
<path fill="none" stroke="#000000" d="M742.4698,-122.1061C742.4698,-122.1061 742.4698,-140.991 742.4698,-140.991"/>
<polygon fill="#000000" stroke="#000000" points="738.9699,-140.9909 742.4698,-150.991 745.9699,-140.991 738.9699,-140.9909"/>
</g>
<!-- FormsModule -->
<g id="node7" class="node">
<title>FormsModule</title>
<polygon fill="#8dd3c7" stroke="#000000" points="705.8288,-122 702.8288,-126 681.8288,-126 678.8288,-122 610.1712,-122 610.1712,-86 705.8288,-86 705.8288,-122"/>
<text text-anchor="middle" x="658" y="-99.8" font-family="Times,serif" font-size="14.00" fill="#000000">FormsModule</text>
</g>
<!-- FormsModule&#45;&gt;AuthModule -->
<g id="edge6" class="edge">
<title>FormsModule&#45;&gt;AuthModule</title>
<path fill="none" stroke="#000000" d="M689.9453,-122.1061C689.9453,-122.1061 689.9453,-140.991 689.9453,-140.991"/>
<polygon fill="#000000" stroke="#000000" points="686.4454,-140.9909 689.9453,-150.991 693.4454,-140.991 686.4454,-140.9909"/>
</g>
<!-- BrowserModule -->
<g id="node8" class="node">
<title>BrowserModule</title>
<polygon fill="#8dd3c7" stroke="#000000" points="592.4734,-122 589.4734,-126 568.4734,-126 565.4734,-122 485.5266,-122 485.5266,-86 592.4734,-86 592.4734,-122"/>
<text text-anchor="middle" x="539" y="-99.8" font-family="Times,serif" font-size="14.00" fill="#000000">BrowserModule</text>
</g>
<!-- BrowserModule&#45;&gt;AuthModule -->
<g id="edge7" class="edge">
<title>BrowserModule&#45;&gt;AuthModule</title>
<path fill="none" stroke="#000000" d="M539,-122.0091C539,-138.0494 539,-159 539,-159 539,-159 664.2117,-159 664.2117,-159"/>
<polygon fill="#000000" stroke="#000000" points="664.2117,-162.5001 674.2117,-159 664.2116,-155.5001 664.2117,-162.5001"/>
</g>
<!-- RouterModule.forRoot(args) -->
<g id="node9" class="node">
<title>RouterModule.forRoot(args)</title>
<polygon fill="#8dd3c7" stroke="#000000" points="467.8419,-122 464.8419,-126 443.8419,-126 440.8419,-122 290.1581,-122 290.1581,-86 467.8419,-86 467.8419,-122"/>
<text text-anchor="middle" x="379" y="-99.8" font-family="Times,serif" font-size="14.00" fill="#000000">RouterModule.forRoot(args)</text>
</g>
<!-- RouterModule.forRoot(args)&#45;&gt;AuthModule -->
<g id="edge8" class="edge">
<title>RouterModule.forRoot(args)&#45;&gt;AuthModule</title>
<path fill="none" stroke="#000000" d="M379,-122.2667C379,-140.5552 379,-166 379,-166 379,-166 664.3757,-166 664.3757,-166"/>
<polygon fill="#000000" stroke="#000000" points="664.3757,-169.5001 674.3757,-166 664.3756,-162.5001 664.3757,-169.5001"/>
</g>
<!-- FirebaseModule -->
<g id="node10" class="node">
<title>FirebaseModule</title>
<polygon fill="#8dd3c7" stroke="#000000" points="272.472,-122 269.472,-126 248.472,-126 245.472,-122 165.528,-122 165.528,-86 272.472,-86 272.472,-122"/>
<text text-anchor="middle" x="219" y="-99.8" font-family="Times,serif" font-size="14.00" fill="#000000">FirebaseModule</text>
</g>
<!-- FirebaseModule&#45;&gt;AuthModule -->
<g id="edge9" class="edge">
<title>FirebaseModule&#45;&gt;AuthModule</title>
<path fill="none" stroke="#000000" d="M219,-122.1289C219,-142.5724 219,-173 219,-173 219,-173 664.1544,-173 664.1544,-173"/>
<polygon fill="#000000" stroke="#000000" points="664.1545,-176.5001 674.1544,-173 664.1544,-169.5001 664.1545,-176.5001"/>
</g>
<!-- AuthService -->
<g id="node11" class="node">
<title>AuthService</title>
<ellipse fill="#fdb462" stroke="#000000" cx="83" cy="-104" rx="59.1083" ry="18"/>
<text text-anchor="middle" x="83" y="-99.8" font-family="Times,serif" font-size="14.00" fill="#000000">AuthService</text>
</g>
<!-- AuthService&#45;&gt;AuthModule -->
<g id="edge10" class="edge">
<title>AuthService&#45;&gt;AuthModule</title>
<path fill="none" stroke="#000000" d="M83,-122.0109C83,-144.4852 83,-180 83,-180 83,-180 664.3539,-180 664.3539,-180"/>
<polygon fill="#000000" stroke="#000000" points="664.3539,-183.5001 674.3539,-180 664.3538,-176.5001 664.3539,-183.5001"/>
</g>
</g>
</svg>
