<?xml version="1.0" encoding="UTF-8" standalone="no"?>
<!DOCTYPE svg PUBLIC "-//W3C//DTD SVG 1.1//EN"
 "http://www.w3.org/Graphics/SVG/1.1/DTD/svg11.dtd">
<!-- Generated by graphviz version 2.40.1 (20161225.0304)
 -->
<!-- Title: dependencies Pages: 1 -->
<svg width="3131pt" height="211pt"
 viewBox="0.00 0.00 3131.00 211.00" xmlns="http://www.w3.org/2000/svg" xmlns:xlink="http://www.w3.org/1999/xlink">
<g id="graph0" class="graph" transform="scale(1 1) rotate(0) translate(4 207)">
<title>dependencies</title>
<polygon fill="#ffffff" stroke="transparent" points="-4,4 -4,-207 3127,-207 3127,4 -4,4"/>
<text text-anchor="start" x="1540.5091" y="-42.4" font-family="sans-serif" font-weight="bold" font-size="14.00" fill="#000000">Legend</text>
<polygon fill="#ffffb3" stroke="transparent" points="1327.5,-10 1327.5,-30 1347.5,-30 1347.5,-10 1327.5,-10"/>
<text text-anchor="start" x="1351.129" y="-15.4" font-family="sans-serif" font-size="14.00" fill="#000000"> &#160;Declarations</text>
<polygon fill="#8dd3c7" stroke="transparent" points="1440.5,-10 1440.5,-30 1460.5,-30 1460.5,-10 1440.5,-10"/>
<text text-anchor="start" x="1464.2251" y="-15.4" font-family="sans-serif" font-size="14.00" fill="#000000"> &#160;Module</text>
<polygon fill="#80b1d3" stroke="transparent" points="1526.5,-10 1526.5,-30 1546.5,-30 1546.5,-10 1526.5,-10"/>
<text text-anchor="start" x="1550.2812" y="-15.4" font-family="sans-serif" font-size="14.00" fill="#000000"> &#160;Bootstrap</text>
<polygon fill="#fdb462" stroke="transparent" points="1623.5,-10 1623.5,-30 1643.5,-30 1643.5,-10 1623.5,-10"/>
<text text-anchor="start" x="1647.1732" y="-15.4" font-family="sans-serif" font-size="14.00" fill="#000000"> &#160;Providers</text>
<polygon fill="#fb8072" stroke="transparent" points="1719.5,-10 1719.5,-30 1739.5,-30 1739.5,-10 1719.5,-10"/>
<text text-anchor="start" x="1743.2258" y="-15.4" font-family="sans-serif" font-size="14.00" fill="#000000"> &#160;Exports</text>
<g id="clust1" class="cluster">
<title>cluster_ResumeModule</title>
<polygon fill="none" stroke="#000000" stroke-dasharray="1,5" points="8,-70 8,-195 3115,-195 3115,-70 8,-70"/>
</g>
<g id="clust2" class="cluster">
<title>cluster_ResumeModule_declarations</title>
<polygon fill="none" stroke="#000000" points="1272,-78 1272,-130 3107,-130 3107,-78 1272,-78"/>
</g>
<g id="clust13" class="cluster">
<title>cluster_ResumeModule_imports</title>
<polygon fill="none" stroke="#000000" points="16,-78 16,-130 1264,-130 1264,-78 16,-78"/>
</g>
<!-- EditResumePageComponent -->
<g id="node1" class="node">
<title>EditResumePageComponent</title>
<polygon fill="#ffffb3" stroke="#000000" points="3099.479,-122 2922.521,-122 2922.521,-86 3099.479,-86 3099.479,-122"/>
<text text-anchor="middle" x="3011" y="-99.8" font-family="Times,serif" font-size="14.00" fill="#000000">EditResumePageComponent</text>
</g>
<!-- ResumeModule -->
<g id="node11" class="node">
<title>ResumeModule</title>
<polygon fill="#8dd3c7" stroke="#000000" points="1455.1514,-187 1452.1514,-191 1431.1514,-191 1428.1514,-187 1350.8486,-187 1350.8486,-151 1455.1514,-151 1455.1514,-187"/>
<text text-anchor="middle" x="1403" y="-164.8" font-family="Times,serif" font-size="14.00" fill="#000000">ResumeModule</text>
</g>
<!-- EditResumePageComponent&#45;&gt;ResumeModule -->
<g id="edge1" class="edge">
<title>EditResumePageComponent&#45;&gt;ResumeModule</title>
<path fill="none" stroke="#000000" d="M3011,-122.3228C3011,-145.6602 3011,-183 3011,-183 3011,-183 1465.5868,-183 1465.5868,-183"/>
<polygon fill="#000000" stroke="#000000" points="1465.5869,-179.5001 1455.5868,-183 1465.5868,-186.5001 1465.5869,-179.5001"/>
</g>
<!-- EditExperienceListComponent -->
<g id="node2" class="node">
<title>EditExperienceListComponent</title>
<polygon fill="#ffffb3" stroke="#000000" points="2904.9072,-122 2715.0928,-122 2715.0928,-86 2904.9072,-86 2904.9072,-122"/>
<text text-anchor="middle" x="2810" y="-99.8" font-family="Times,serif" font-size="14.00" fill="#000000">EditExperienceListComponent</text>
</g>
<!-- EditExperienceListComponent&#45;&gt;ResumeModule -->
<g id="edge2" class="edge">
<title>EditExperienceListComponent&#45;&gt;ResumeModule</title>
<path fill="none" stroke="#000000" d="M2810,-122.1554C2810,-144.3519 2810,-179 2810,-179 2810,-179 1465.1656,-179 1465.1656,-179"/>
<polygon fill="#000000" stroke="#000000" points="1465.1656,-175.5001 1455.1656,-179 1465.1655,-182.5001 1465.1656,-175.5001"/>
</g>
<!-- EditExperienceItemComponent -->
<g id="node3" class="node">
<title>EditExperienceItemComponent</title>
<polygon fill="#ffffb3" stroke="#000000" points="2697.785,-122 2504.215,-122 2504.215,-86 2697.785,-86 2697.785,-122"/>
<text text-anchor="middle" x="2601" y="-99.8" font-family="Times,serif" font-size="14.00" fill="#000000">EditExperienceItemComponent</text>
</g>
<!-- EditExperienceItemComponent&#45;&gt;ResumeModule -->
<g id="edge3" class="edge">
<title>EditExperienceItemComponent&#45;&gt;ResumeModule</title>
<path fill="none" stroke="#000000" d="M2601,-122.2843C2601,-143.3211 2601,-175 2601,-175 2601,-175 1465.2469,-175 1465.2469,-175"/>
<polygon fill="#000000" stroke="#000000" points="1465.2469,-171.5001 1455.2469,-175 1465.2469,-178.5001 1465.2469,-171.5001"/>
</g>
<!-- EditUserInfoComponent -->
<g id="node4" class="node">
<title>EditUserInfoComponent</title>
<polygon fill="#ffffb3" stroke="#000000" points="2486.4144,-122 2331.5856,-122 2331.5856,-86 2486.4144,-86 2486.4144,-122"/>
<text text-anchor="middle" x="2409" y="-99.8" font-family="Times,serif" font-size="14.00" fill="#000000">EditUserInfoComponent</text>
</g>
<!-- EditUserInfoComponent&#45;&gt;ResumeModule -->
<g id="edge4" class="edge">
<title>EditUserInfoComponent&#45;&gt;ResumeModule</title>
<path fill="none" stroke="#000000" d="M2409,-122.308C2409,-142.1455 2409,-171 2409,-171 2409,-171 1465.319,-171 1465.319,-171"/>
<polygon fill="#000000" stroke="#000000" points="1465.319,-167.5001 1455.319,-171 1465.319,-174.5001 1465.319,-167.5001"/>
</g>
<!-- UploadImageComponent -->
<g id="node5" class="node">
<title>UploadImageComponent</title>
<polygon fill="#ffffb3" stroke="#000000" points="2313.5253,-122 2156.4747,-122 2156.4747,-86 2313.5253,-86 2313.5253,-122"/>
<text text-anchor="middle" x="2235" y="-99.8" font-family="Times,serif" font-size="14.00" fill="#000000">UploadImageComponent</text>
</g>
<!-- UploadImageComponent&#45;&gt;ResumeModule -->
<g id="edge5" class="edge">
<title>UploadImageComponent&#45;&gt;ResumeModule</title>
<path fill="none" stroke="#000000" d="M2235,-122.2222C2235,-140.8285 2235,-167 2235,-167 2235,-167 1465.3605,-167 1465.3605,-167"/>
<polygon fill="#000000" stroke="#000000" points="1465.3605,-163.5001 1455.3605,-167 1465.3605,-170.5001 1465.3605,-163.5001"/>
</g>
<!-- ExperienceItemFormComponent -->
<g id="node6" class="node">
<title>ExperienceItemFormComponent</title>
<polygon fill="#ffffb3" stroke="#000000" points="2138.285,-122 1937.715,-122 1937.715,-86 2138.285,-86 2138.285,-122"/>
<text text-anchor="middle" x="2038" y="-99.8" font-family="Times,serif" font-size="14.00" fill="#000000">ExperienceItemFormComponent</text>
</g>
<!-- ExperienceItemFormComponent&#45;&gt;ResumeModule -->
<g id="edge6" class="edge">
<title>ExperienceItemFormComponent&#45;&gt;ResumeModule</title>
<path fill="none" stroke="#000000" d="M2038,-122.0225C2038,-139.3734 2038,-163 2038,-163 2038,-163 1465.2345,-163 1465.2345,-163"/>
<polygon fill="#000000" stroke="#000000" points="1465.2346,-159.5001 1455.2345,-163 1465.2345,-166.5001 1465.2346,-159.5001"/>
</g>
<!-- ExperienceListComponent -->
<g id="node7" class="node">
<title>ExperienceListComponent</title>
<polygon fill="#ffffb3" stroke="#000000" points="1920.073,-122 1753.927,-122 1753.927,-86 1920.073,-86 1920.073,-122"/>
<text text-anchor="middle" x="1837" y="-99.8" font-family="Times,serif" font-size="14.00" fill="#000000">ExperienceListComponent</text>
</g>
<!-- ExperienceListComponent&#45;&gt;ResumeModule -->
<g id="edge7" class="edge">
<title>ExperienceListComponent&#45;&gt;ResumeModule</title>
<path fill="none" stroke="#000000" d="M1837,-122.0091C1837,-138.0494 1837,-159 1837,-159 1837,-159 1465.3505,-159 1465.3505,-159"/>
<polygon fill="#000000" stroke="#000000" points="1465.3506,-155.5001 1455.3505,-159 1465.3505,-162.5001 1465.3506,-155.5001"/>
</g>
<!-- ResumePageComponent -->
<g id="node8" class="node">
<title>ResumePageComponent</title>
<polygon fill="#ffffb3" stroke="#000000" points="1735.6456,-122 1582.3544,-122 1582.3544,-86 1735.6456,-86 1735.6456,-122"/>
<text text-anchor="middle" x="1659" y="-99.8" font-family="Times,serif" font-size="14.00" fill="#000000">ResumePageComponent</text>
</g>
<!-- ResumePageComponent&#45;&gt;ResumeModule -->
<g id="edge8" class="edge">
<title>ResumePageComponent&#45;&gt;ResumeModule</title>
<path fill="none" stroke="#000000" d="M1659,-122.1243C1659,-136.7832 1659,-155 1659,-155 1659,-155 1465.4232,-155 1465.4232,-155"/>
<polygon fill="#000000" stroke="#000000" points="1465.4232,-151.5001 1455.4232,-155 1465.4231,-158.5001 1465.4232,-151.5001"/>
</g>
<!-- ExperienceItemComponent -->
<g id="node9" class="node">
<title>ExperienceItemComponent</title>
<polygon fill="#ffffb3" stroke="#000000" points="1563.951,-122 1394.049,-122 1394.049,-86 1563.951,-86 1563.951,-122"/>
<text text-anchor="middle" x="1479" y="-99.8" font-family="Times,serif" font-size="14.00" fill="#000000">ExperienceItemComponent</text>
</g>
<!-- ExperienceItemComponent&#45;&gt;ResumeModule -->
<g id="edge9" class="edge">
<title>ExperienceItemComponent&#45;&gt;ResumeModule</title>
<path fill="none" stroke="#000000" d="M1424.675,-122.1061C1424.675,-122.1061 1424.675,-140.991 1424.675,-140.991"/>
<polygon fill="#000000" stroke="#000000" points="1421.175,-140.9909 1424.675,-150.991 1428.175,-140.991 1421.175,-140.9909"/>
</g>
<!-- PrintDirective -->
<g id="node10" class="node">
<title>PrintDirective</title>
<polygon fill="#ffffb3" stroke="#000000" points="1375.8077,-122 1280.1923,-122 1280.1923,-86 1375.8077,-86 1375.8077,-122"/>
<text text-anchor="middle" x="1328" y="-99.8" font-family="Times,serif" font-size="14.00" fill="#000000">PrintDirective</text>
</g>
<!-- PrintDirective&#45;&gt;ResumeModule -->
<g id="edge10" class="edge">
<title>PrintDirective&#45;&gt;ResumeModule</title>
<path fill="none" stroke="#000000" d="M1363.1641,-122.1061C1363.1641,-122.1061 1363.1641,-140.991 1363.1641,-140.991"/>
<polygon fill="#000000" stroke="#000000" points="1359.6642,-140.9909 1363.1641,-150.991 1366.6642,-140.991 1359.6642,-140.9909"/>
</g>
<!-- CommonModule -->
<g id="node12" class="node">
<title>CommonModule</title>
<polygon fill="#8dd3c7" stroke="#000000" points="1255.6681,-122 1252.6681,-126 1231.6681,-126 1228.6681,-122 1144.3319,-122 1144.3319,-86 1255.6681,-86 1255.6681,-122"/>
<text text-anchor="middle" x="1200" y="-99.8" font-family="Times,serif" font-size="14.00" fill="#000000">CommonModule</text>
</g>
<!-- CommonModule&#45;&gt;ResumeModule -->
<g id="edge11" class="edge">
<title>CommonModule&#45;&gt;ResumeModule</title>
<path fill="none" stroke="#000000" d="M1200,-122.1243C1200,-136.7832 1200,-155 1200,-155 1200,-155 1340.7225,-155 1340.7225,-155"/>
<polygon fill="#000000" stroke="#000000" points="1340.7225,-158.5001 1350.7225,-155 1340.7224,-151.5001 1340.7225,-158.5001"/>
</g>
<!-- FormsModule -->
<g id="node13" class="node">
<title>FormsModule</title>
<polygon fill="#8dd3c7" stroke="#000000" points="1126.8288,-122 1123.8288,-126 1102.8288,-126 1099.8288,-122 1031.1712,-122 1031.1712,-86 1126.8288,-86 1126.8288,-122"/>
<text text-anchor="middle" x="1079" y="-99.8" font-family="Times,serif" font-size="14.00" fill="#000000">FormsModule</text>
</g>
<!-- FormsModule&#45;&gt;ResumeModule -->
<g id="edge12" class="edge">
<title>FormsModule&#45;&gt;ResumeModule</title>
<path fill="none" stroke="#000000" d="M1079,-122.0091C1079,-138.0494 1079,-159 1079,-159 1079,-159 1340.5837,-159 1340.5837,-159"/>
<polygon fill="#000000" stroke="#000000" points="1340.5837,-162.5001 1350.5837,-159 1340.5837,-155.5001 1340.5837,-162.5001"/>
</g>
<!-- AuthModule -->
<g id="node14" class="node">
<title>AuthModule</title>
<polygon fill="#8dd3c7" stroke="#000000" points="1013.5482,-122 1010.5482,-126 989.5482,-126 986.5482,-122 926.4518,-122 926.4518,-86 1013.5482,-86 1013.5482,-122"/>
<text text-anchor="middle" x="970" y="-99.8" font-family="Times,serif" font-size="14.00" fill="#000000">AuthModule</text>
</g>
<!-- AuthModule&#45;&gt;ResumeModule -->
<g id="edge13" class="edge">
<title>AuthModule&#45;&gt;ResumeModule</title>
<path fill="none" stroke="#000000" d="M970,-122.0225C970,-139.3734 970,-163 970,-163 970,-163 1340.7701,-163 1340.7701,-163"/>
<polygon fill="#000000" stroke="#000000" points="1340.7701,-166.5001 1350.7701,-163 1340.77,-159.5001 1340.7701,-166.5001"/>
</g>
<!-- ImageCropperModule -->
<g id="node15" class="node">
<title>ImageCropperModule</title>
<polygon fill="#8dd3c7" stroke="#000000" points="908.4032,-122 905.4032,-126 884.4032,-126 881.4032,-122 767.5968,-122 767.5968,-86 908.4032,-86 908.4032,-122"/>
<text text-anchor="middle" x="838" y="-99.8" font-family="Times,serif" font-size="14.00" fill="#000000">ImageCropperModule</text>
</g>
<!-- ImageCropperModule&#45;&gt;ResumeModule -->
<g id="edge14" class="edge">
<title>ImageCropperModule&#45;&gt;ResumeModule</title>
<path fill="none" stroke="#000000" d="M838,-122.2222C838,-140.8285 838,-167 838,-167 838,-167 1340.6065,-167 1340.6065,-167"/>
<polygon fill="#000000" stroke="#000000" points="1340.6065,-170.5001 1350.6065,-167 1340.6064,-163.5001 1340.6065,-170.5001"/>
</g>
<!-- RouterModule.forRoot(args) -->
<g id="node16" class="node">
<title>RouterModule.forRoot(args)</title>
<polygon fill="#8dd3c7" stroke="#000000" points="749.8419,-122 746.8419,-126 725.8419,-126 722.8419,-122 572.1581,-122 572.1581,-86 749.8419,-86 749.8419,-122"/>
<text text-anchor="middle" x="661" y="-99.8" font-family="Times,serif" font-size="14.00" fill="#000000">RouterModule.forRoot(args)</text>
</g>
<!-- RouterModule.forRoot(args)&#45;&gt;ResumeModule -->
<g id="edge15" class="edge">
<title>RouterModule.forRoot(args)&#45;&gt;ResumeModule</title>
<path fill="none" stroke="#000000" d="M661,-122.308C661,-142.1455 661,-171 661,-171 661,-171 1340.824,-171 1340.824,-171"/>
<polygon fill="#000000" stroke="#000000" points="1340.824,-174.5001 1350.824,-171 1340.824,-167.5001 1340.824,-174.5001"/>
</g>
<!-- CollapseModule.forRoot() -->
<g id="node17" class="node">
<title>CollapseModule.forRoot()</title>
<polygon fill="#8dd3c7" stroke="#000000" points="554.411,-122 551.411,-126 530.411,-126 527.411,-122 389.589,-122 389.589,-86 554.411,-86 554.411,-122"/>
<text text-anchor="middle" x="472" y="-99.8" font-family="Times,serif" font-size="14.00" fill="#000000">CollapseModule.forRoot()</text>
</g>
<!-- CollapseModule.forRoot()&#45;&gt;ResumeModule -->
<g id="edge16" class="edge">
<title>CollapseModule.forRoot()&#45;&gt;ResumeModule</title>
<path fill="none" stroke="#000000" d="M472,-122.2843C472,-143.3211 472,-175 472,-175 472,-175 1340.6147,-175 1340.6147,-175"/>
<polygon fill="#000000" stroke="#000000" points="1340.6147,-178.5001 1350.6147,-175 1340.6146,-171.5001 1340.6147,-178.5001"/>
</g>
<!-- DatepickerModule.forRoot() -->
<g id="node18" class="node">
<title>DatepickerModule.forRoot()</title>
<polygon fill="#8dd3c7" stroke="#000000" points="371.8265,-122 368.8265,-126 347.8265,-126 344.8265,-122 194.1735,-122 194.1735,-86 371.8265,-86 371.8265,-122"/>
<text text-anchor="middle" x="283" y="-99.8" font-family="Times,serif" font-size="14.00" fill="#000000">DatepickerModule.forRoot()</text>
</g>
<!-- DatepickerModule.forRoot()&#45;&gt;ResumeModule -->
<g id="edge17" class="edge">
<title>DatepickerModule.forRoot()&#45;&gt;ResumeModule</title>
<path fill="none" stroke="#000000" d="M283,-122.1554C283,-144.3519 283,-179 283,-179 283,-179 1340.4823,-179 1340.4823,-179"/>
<polygon fill="#000000" stroke="#000000" points="1340.4823,-182.5001 1350.4823,-179 1340.4823,-175.5001 1340.4823,-182.5001"/>
</g>
<!-- ModalModule.forRoot() -->
<g id="node19" class="node">
<title>ModalModule.forRoot()</title>
<polygon fill="#8dd3c7" stroke="#000000" points="176.4699,-122 173.4699,-126 152.4699,-126 149.4699,-122 23.5301,-122 23.5301,-86 176.4699,-86 176.4699,-122"/>
<text text-anchor="middle" x="100" y="-99.8" font-family="Times,serif" font-size="14.00" fill="#000000">ModalModule.forRoot()</text>
</g>
<!-- ModalModule.forRoot()&#45;&gt;ResumeModule -->
<g id="edge18" class="edge">
<title>ModalModule.forRoot()&#45;&gt;ResumeModule</title>
<path fill="none" stroke="#000000" d="M100,-122.3228C100,-145.6602 100,-183 100,-183 100,-183 1340.7126,-183 1340.7126,-183"/>
<polygon fill="#000000" stroke="#000000" points="1340.7127,-186.5001 1350.7126,-183 1340.7126,-179.5001 1340.7127,-186.5001"/>
</g>
</g>
</svg>
