<?xml version="1.0" encoding="UTF-8" standalone="no"?>
<!DOCTYPE svg PUBLIC "-//W3C//DTD SVG 1.1//EN"
 "http://www.w3.org/Graphics/SVG/1.1/DTD/svg11.dtd">
<!-- Generated by graphviz version 2.40.1 (20161225.0304)
 -->
<!-- Title: dependencies Pages: 1 -->
<svg width="1308pt" height="211pt"
 viewBox="0.00 0.00 1308.00 211.00" xmlns="http://www.w3.org/2000/svg" xmlns:xlink="http://www.w3.org/1999/xlink">
<g id="graph0" class="graph" transform="scale(1 1) rotate(0) translate(4 207)">
<title>dependencies</title>
<polygon fill="#ffffff" stroke="transparent" points="-4,4 -4,-207 1304,-207 1304,4 -4,4"/>
<text text-anchor="start" x="629.0091" y="-42.4" font-family="sans-serif" font-weight="bold" font-size="14.00" fill="#000000">Legend</text>
<polygon fill="#ffffb3" stroke="transparent" points="416,-10 416,-30 436,-30 436,-10 416,-10"/>
<text text-anchor="start" x="439.629" y="-15.4" font-family="sans-serif" font-size="14.00" fill="#000000"> &#160;Declarations</text>
<polygon fill="#8dd3c7" stroke="transparent" points="529,-10 529,-30 549,-30 549,-10 529,-10"/>
<text text-anchor="start" x="552.7251" y="-15.4" font-family="sans-serif" font-size="14.00" fill="#000000"> &#160;Module</text>
<polygon fill="#80b1d3" stroke="transparent" points="615,-10 615,-30 635,-30 635,-10 615,-10"/>
<text text-anchor="start" x="638.7812" y="-15.4" font-family="sans-serif" font-size="14.00" fill="#000000"> &#160;Bootstrap</text>
<polygon fill="#fdb462" stroke="transparent" points="712,-10 712,-30 732,-30 732,-10 712,-10"/>
<text text-anchor="start" x="735.6732" y="-15.4" font-family="sans-serif" font-size="14.00" fill="#000000"> &#160;Providers</text>
<polygon fill="#fb8072" stroke="transparent" points="808,-10 808,-30 828,-30 828,-10 808,-10"/>
<text text-anchor="start" x="831.7258" y="-15.4" font-family="sans-serif" font-size="14.00" fill="#000000"> &#160;Exports</text>
<g id="clust1" class="cluster">
<title>cluster_FirebaseModule</title>
<polygon fill="none" stroke="#000000" stroke-dasharray="1,5" points="8,-70 8,-195 1292,-195 1292,-70 8,-70"/>
</g>
<g id="clust3" class="cluster">
<title>cluster_FirebaseModule_imports</title>
<polygon fill="none" stroke="#000000" points="659,-78 659,-130 1284,-130 1284,-78 659,-78"/>
</g>
<g id="clust6" class="cluster">
<title>cluster_FirebaseModule_providers</title>
<polygon fill="none" stroke="#000000" points="16,-78 16,-130 651,-130 651,-78 16,-78"/>
</g>
<!-- AngularFireModule.initializeApp(args) -->
<g id="node1" class="node">
<title>AngularFireModule.initializeApp(args)</title>
<polygon fill="#8dd3c7" stroke="#000000" points="1275.7057,-122 1272.7057,-126 1251.7057,-126 1248.7057,-122 1038.2943,-122 1038.2943,-86 1275.7057,-86 1275.7057,-122"/>
<text text-anchor="middle" x="1157" y="-99.8" font-family="Times,serif" font-size="14.00" fill="#000000">AngularFireModule.initializeApp(args)</text>
</g>
<!-- FirebaseModule -->
<g id="node4" class="node">
<title>FirebaseModule</title>
<polygon fill="#8dd3c7" stroke="#000000" points="701.472,-187 698.472,-191 677.472,-191 674.472,-187 594.528,-187 594.528,-151 701.472,-151 701.472,-187"/>
<text text-anchor="middle" x="648" y="-164.8" font-family="Times,serif" font-size="14.00" fill="#000000">FirebaseModule</text>
</g>
<!-- AngularFireModule.initializeApp(args)&#45;&gt;FirebaseModule -->
<g id="edge1" class="edge">
<title>AngularFireModule.initializeApp(args)&#45;&gt;FirebaseModule</title>
<path fill="none" stroke="#000000" d="M1157,-122.2843C1157,-143.3211 1157,-175 1157,-175 1157,-175 711.5099,-175 711.5099,-175"/>
<polygon fill="#000000" stroke="#000000" points="711.5099,-171.5001 701.5099,-175 711.5098,-178.5001 711.5099,-171.5001"/>
</g>
<!-- AngularFireDatabaseModule -->
<g id="node2" class="node">
<title>AngularFireDatabaseModule</title>
<polygon fill="#8dd3c7" stroke="#000000" points="1020.771,-122 1017.771,-126 996.771,-126 993.771,-122 841.229,-122 841.229,-86 1020.771,-86 1020.771,-122"/>
<text text-anchor="middle" x="931" y="-99.8" font-family="Times,serif" font-size="14.00" fill="#000000">AngularFireDatabaseModule</text>
</g>
<!-- AngularFireDatabaseModule&#45;&gt;FirebaseModule -->
<g id="edge2" class="edge">
<title>AngularFireDatabaseModule&#45;&gt;FirebaseModule</title>
<path fill="none" stroke="#000000" d="M931,-122.0225C931,-139.3734 931,-163 931,-163 931,-163 711.5628,-163 711.5628,-163"/>
<polygon fill="#000000" stroke="#000000" points="711.5629,-159.5001 701.5628,-163 711.5628,-166.5001 711.5629,-159.5001"/>
</g>
<!-- AngularFireAuthModule -->
<g id="node3" class="node">
<title>AngularFireAuthModule</title>
<polygon fill="#8dd3c7" stroke="#000000" points="822.9678,-122 819.9678,-126 798.9678,-126 795.9678,-122 667.0322,-122 667.0322,-86 822.9678,-86 822.9678,-122"/>
<text text-anchor="middle" x="745" y="-99.8" font-family="Times,serif" font-size="14.00" fill="#000000">AngularFireAuthModule</text>
</g>
<!-- AngularFireAuthModule&#45;&gt;FirebaseModule -->
<g id="edge3" class="edge">
<title>AngularFireAuthModule&#45;&gt;FirebaseModule</title>
<path fill="none" stroke="#000000" d="M684.2511,-122.1061C684.2511,-122.1061 684.2511,-140.991 684.2511,-140.991"/>
<polygon fill="#000000" stroke="#000000" points="680.7511,-140.9909 684.2511,-150.991 687.7511,-140.991 680.7511,-140.9909"/>
</g>
<!-- FirebaseAuthService -->
<g id="node5" class="node">
<title>FirebaseAuthService</title>
<ellipse fill="#fdb462" stroke="#000000" cx="551" cy="-104" rx="92.0296" ry="18"/>
<text text-anchor="middle" x="551" y="-99.8" font-family="Times,serif" font-size="14.00" fill="#000000">FirebaseAuthService</text>
</g>
<!-- FirebaseAuthService&#45;&gt;FirebaseModule -->
<g id="edge4" class="edge">
<title>FirebaseAuthService&#45;&gt;FirebaseModule</title>
<path fill="none" stroke="#000000" d="M618.7644,-116.226C618.7644,-116.226 618.7644,-140.683 618.7644,-140.683"/>
<polygon fill="#000000" stroke="#000000" points="615.2645,-140.683 618.7644,-150.683 622.2645,-140.683 615.2645,-140.683"/>
</g>
<!-- FirebaseStorageService -->
<g id="node6" class="node">
<title>FirebaseStorageService</title>
<ellipse fill="#fdb462" stroke="#000000" cx="339" cy="-104" rx="102.4004" ry="18"/>
<text text-anchor="middle" x="339" y="-99.8" font-family="Times,serif" font-size="14.00" fill="#000000">FirebaseStorageService</text>
</g>
<!-- FirebaseStorageService&#45;&gt;FirebaseModule -->
<g id="edge5" class="edge">
<title>FirebaseStorageService&#45;&gt;FirebaseModule</title>
<path fill="none" stroke="#000000" d="M339,-122.0225C339,-139.3734 339,-163 339,-163 339,-163 584.1763,-163 584.1763,-163"/>
<polygon fill="#000000" stroke="#000000" points="584.1763,-166.5001 594.1763,-163 584.1763,-159.5001 584.1763,-166.5001"/>
</g>
<!-- UserReferenceService -->
<g id="node7" class="node">
<title>UserReferenceService</title>
<ellipse fill="#fdb462" stroke="#000000" cx="121" cy="-104" rx="97.2046" ry="18"/>
<text text-anchor="middle" x="121" y="-99.8" font-family="Times,serif" font-size="14.00" fill="#000000">UserReferenceService</text>
</g>
<!-- UserReferenceService&#45;&gt;FirebaseModule -->
<g id="edge6" class="edge">
<title>UserReferenceService&#45;&gt;FirebaseModule</title>
<path fill="none" stroke="#000000" d="M121,-122.2843C121,-143.3211 121,-175 121,-175 121,-175 584.0784,-175 584.0784,-175"/>
<polygon fill="#000000" stroke="#000000" points="584.0784,-178.5001 594.0784,-175 584.0783,-171.5001 584.0784,-178.5001"/>
</g>
</g>
</svg>
