<?xml version="1.0" encoding="UTF-8" standalone="no"?>
<!DOCTYPE svg PUBLIC "-//W3C//DTD SVG 1.1//EN"
 "http://www.w3.org/Graphics/SVG/1.1/DTD/svg11.dtd">
<!-- Generated by graphviz version 2.40.1 (20161225.0304)
 -->
<!-- Title: dependencies Pages: 1 -->
<svg width="1708pt" height="284pt"
 viewBox="0.00 0.00 1708.00 284.00" xmlns="http://www.w3.org/2000/svg" xmlns:xlink="http://www.w3.org/1999/xlink">
<g id="graph0" class="graph" transform="scale(1 1) rotate(0) translate(4 280)">
<title>dependencies</title>
<polygon fill="#ffffff" stroke="transparent" points="-4,4 -4,-280 1704,-280 1704,4 -4,4"/>
<text text-anchor="start" x="829.0091" y="-42.4" font-family="sans-serif" font-weight="bold" font-size="14.00" fill="#000000">Legend</text>
<polygon fill="#ffffb3" stroke="transparent" points="616,-10 616,-30 636,-30 636,-10 616,-10"/>
<text text-anchor="start" x="639.629" y="-15.4" font-family="sans-serif" font-size="14.00" fill="#000000"> &#160;Declarations</text>
<polygon fill="#8dd3c7" stroke="transparent" points="729,-10 729,-30 749,-30 749,-10 729,-10"/>
<text text-anchor="start" x="752.7251" y="-15.4" font-family="sans-serif" font-size="14.00" fill="#000000"> &#160;Module</text>
<polygon fill="#80b1d3" stroke="transparent" points="815,-10 815,-30 835,-30 835,-10 815,-10"/>
<text text-anchor="start" x="838.7812" y="-15.4" font-family="sans-serif" font-size="14.00" fill="#000000"> &#160;Bootstrap</text>
<polygon fill="#fdb462" stroke="transparent" points="912,-10 912,-30 932,-30 932,-10 912,-10"/>
<text text-anchor="start" x="935.6732" y="-15.4" font-family="sans-serif" font-size="14.00" fill="#000000"> &#160;Providers</text>
<polygon fill="#fb8072" stroke="transparent" points="1008,-10 1008,-30 1028,-30 1028,-10 1008,-10"/>
<text text-anchor="start" x="1031.7258" y="-15.4" font-family="sans-serif" font-size="14.00" fill="#000000"> &#160;Exports</text>
<g id="clust1" class="cluster">
<title>cluster_AppModule</title>
<polygon fill="none" stroke="#000000" stroke-dasharray="1,5" points="8,-70 8,-268 1692,-268 1692,-70 8,-70"/>
</g>
<g id="clust2" class="cluster">
<title>cluster_AppModule_declarations</title>
<polygon fill="none" stroke="#000000" points="1422,-78 1422,-130 1684,-130 1684,-78 1422,-78"/>
</g>
<g id="clust5" class="cluster">
<title>cluster_AppModule_imports</title>
<polygon fill="none" stroke="#000000" points="418,-78 418,-130 1414,-130 1414,-78 418,-78"/>
</g>
<g id="clust7" class="cluster">
<title>cluster_AppModule_bootstrap</title>
<polygon fill="none" stroke="#000000" points="755,-208 755,-260 879,-260 879,-208 755,-208"/>
</g>
<g id="clust8" class="cluster">
<title>cluster_AppModule_providers</title>
<polygon fill="none" stroke="#000000" points="16,-78 16,-130 410,-130 410,-78 16,-78"/>
</g>
<!-- AppComponent -->
<g id="node1" class="node">
<title>AppComponent</title>
<polygon fill="#ffffb3" stroke="#000000" points="1675.9399,-122 1570.0601,-122 1570.0601,-86 1675.9399,-86 1675.9399,-122"/>
<text text-anchor="middle" x="1623" y="-99.8" font-family="Times,serif" font-size="14.00" fill="#000000">AppComponent</text>
</g>
<!-- AppModule -->
<g id="node3" class="node">
<title>AppModule</title>
<polygon fill="#8dd3c7" stroke="#000000" points="858.6571,-187 855.6571,-191 834.6571,-191 831.6571,-187 775.3429,-187 775.3429,-151 858.6571,-151 858.6571,-187"/>
<text text-anchor="middle" x="817" y="-164.8" font-family="Times,serif" font-size="14.00" fill="#000000">AppModule</text>
</g>
<!-- AppComponent&#45;&gt;AppModule -->
<g id="edge1" class="edge">
<title>AppComponent&#45;&gt;AppModule</title>
<path fill="none" stroke="#000000" d="M1623,-122.0908C1623,-145.1328 1623,-182 1623,-182 1623,-182 868.9176,-182 868.9176,-182"/>
<polygon fill="#000000" stroke="#000000" points="868.9177,-178.5001 858.9176,-182 868.9176,-185.5001 868.9177,-178.5001"/>
</g>
<!-- NavbarComponent -->
<g id="node2" class="node">
<title>NavbarComponent</title>
<polygon fill="#ffffb3" stroke="#000000" points="1552.0297,-122 1429.9703,-122 1429.9703,-86 1552.0297,-86 1552.0297,-122"/>
<text text-anchor="middle" x="1491" y="-99.8" font-family="Times,serif" font-size="14.00" fill="#000000">NavbarComponent</text>
</g>
<!-- NavbarComponent&#45;&gt;AppModule -->
<g id="edge2" class="edge">
<title>NavbarComponent&#45;&gt;AppModule</title>
<path fill="none" stroke="#000000" d="M1491,-122.0449C1491,-143.6623 1491,-177 1491,-177 1491,-177 868.9071,-177 868.9071,-177"/>
<polygon fill="#000000" stroke="#000000" points="868.9071,-173.5001 858.9071,-177 868.907,-180.5001 868.9071,-173.5001"/>
</g>
<!-- AppComponent  -->
<g id="node12" class="node">
<title>AppComponent </title>
<polygon fill="#80b1d3" stroke="#000000" points="871.439,-252 762.561,-252 762.561,-216 871.439,-216 871.439,-252"/>
<text text-anchor="middle" x="817" y="-229.8" font-family="Times,serif" font-size="14.00" fill="#000000">AppComponent </text>
</g>
<!-- AppModule&#45;&gt;AppComponent  -->
<g id="edge11" class="edge">
<title>AppModule&#45;&gt;AppComponent </title>
<path fill="none" stroke="#000000" stroke-dasharray="1,5" d="M817,-187.1061C817,-187.1061 817,-205.991 817,-205.991"/>
<polygon fill="#000000" stroke="#000000" points="813.5001,-205.9909 817,-215.991 820.5001,-205.991 813.5001,-205.9909"/>
</g>
<!-- BrowserModule -->
<g id="node4" class="node">
<title>BrowserModule</title>
<polygon fill="#8dd3c7" stroke="#000000" points="1406.4734,-122 1403.4734,-126 1382.4734,-126 1379.4734,-122 1299.5266,-122 1299.5266,-86 1406.4734,-86 1406.4734,-122"/>
<text text-anchor="middle" x="1353" y="-99.8" font-family="Times,serif" font-size="14.00" fill="#000000">BrowserModule</text>
</g>
<!-- BrowserModule&#45;&gt;AppModule -->
<g id="edge3" class="edge">
<title>BrowserModule&#45;&gt;AppModule</title>
<path fill="none" stroke="#000000" d="M1353,-122.2228C1353,-142.3652 1353,-172 1353,-172 1353,-172 869.059,-172 869.059,-172"/>
<polygon fill="#000000" stroke="#000000" points="869.0591,-168.5001 859.059,-172 869.059,-175.5001 869.0591,-168.5001"/>
</g>
<!-- FormsModule -->
<g id="node5" class="node">
<title>FormsModule</title>
<polygon fill="#8dd3c7" stroke="#000000" points="1281.8288,-122 1278.8288,-126 1257.8288,-126 1254.8288,-122 1186.1712,-122 1186.1712,-86 1281.8288,-86 1281.8288,-122"/>
<text text-anchor="middle" x="1234" y="-99.8" font-family="Times,serif" font-size="14.00" fill="#000000">FormsModule</text>
</g>
<!-- FormsModule&#45;&gt;AppModule -->
<g id="edge4" class="edge">
<title>FormsModule&#45;&gt;AppModule</title>
<path fill="none" stroke="#000000" d="M1234,-122.2222C1234,-140.8285 1234,-167 1234,-167 1234,-167 868.8928,-167 868.8928,-167"/>
<polygon fill="#000000" stroke="#000000" points="868.8929,-163.5001 858.8928,-167 868.8928,-170.5001 868.8929,-163.5001"/>
</g>
<!-- HttpModule -->
<g id="node6" class="node">
<title>HttpModule</title>
<polygon fill="#8dd3c7" stroke="#000000" points="1168.4387,-122 1165.4387,-126 1144.4387,-126 1141.4387,-122 1083.5613,-122 1083.5613,-86 1168.4387,-86 1168.4387,-122"/>
<text text-anchor="middle" x="1126" y="-99.8" font-family="Times,serif" font-size="14.00" fill="#000000">HttpModule</text>
</g>
<!-- HttpModule&#45;&gt;AppModule -->
<g id="edge5" class="edge">
<title>HttpModule&#45;&gt;AppModule</title>
<path fill="none" stroke="#000000" d="M1126,-122.0336C1126,-139.0597 1126,-162 1126,-162 1126,-162 868.6731,-162 868.6731,-162"/>
<polygon fill="#000000" stroke="#000000" points="868.6731,-158.5001 858.6731,-162 868.6731,-165.5001 868.6731,-158.5001"/>
</g>
<!-- RouterModule.forRoot(args) -->
<g id="node7" class="node">
<title>RouterModule.forRoot(args)</title>
<polygon fill="#8dd3c7" stroke="#000000" points="1065.8419,-122 1062.8419,-126 1041.8419,-126 1038.8419,-122 888.1581,-122 888.1581,-86 1065.8419,-86 1065.8419,-122"/>
<text text-anchor="middle" x="977" y="-99.8" font-family="Times,serif" font-size="14.00" fill="#000000">RouterModule.forRoot(args)</text>
</g>
<!-- RouterModule.forRoot(args)&#45;&gt;AppModule -->
<g id="edge6" class="edge">
<title>RouterModule.forRoot(args)&#45;&gt;AppModule</title>
<path fill="none" stroke="#000000" d="M977,-122.2396C977,-137.5706 977,-157 977,-157 977,-157 869.0381,-157 869.0381,-157"/>
<polygon fill="#000000" stroke="#000000" points="869.0382,-153.5001 859.0381,-157 869.0381,-160.5001 869.0382,-153.5001"/>
</g>
<!-- FirebaseModule -->
<g id="node8" class="node">
<title>FirebaseModule</title>
<polygon fill="#8dd3c7" stroke="#000000" points="870.472,-122 867.472,-126 846.472,-126 843.472,-122 763.528,-122 763.528,-86 870.472,-86 870.472,-122"/>
<text text-anchor="middle" x="817" y="-99.8" font-family="Times,serif" font-size="14.00" fill="#000000">FirebaseModule</text>
</g>
<!-- FirebaseModule&#45;&gt;AppModule -->
<g id="edge7" class="edge">
<title>FirebaseModule&#45;&gt;AppModule</title>
<path fill="none" stroke="#000000" d="M817,-122.1061C817,-122.1061 817,-140.991 817,-140.991"/>
<polygon fill="#000000" stroke="#000000" points="813.5001,-140.9909 817,-150.991 820.5001,-140.991 813.5001,-140.9909"/>
</g>
<!-- FacesModule -->
<g id="node9" class="node">
<title>FacesModule</title>
<polygon fill="#8dd3c7" stroke="#000000" points="745.9218,-122 742.9218,-126 721.9218,-126 718.9218,-122 654.0782,-122 654.0782,-86 745.9218,-86 745.9218,-122"/>
<text text-anchor="middle" x="700" y="-99.8" font-family="Times,serif" font-size="14.00" fill="#000000">FacesModule</text>
</g>
<!-- FacesModule&#45;&gt;AppModule -->
<g id="edge8" class="edge">
<title>FacesModule&#45;&gt;AppModule</title>
<path fill="none" stroke="#000000" d="M700,-122.2396C700,-137.5706 700,-157 700,-157 700,-157 765.0908,-157 765.0908,-157"/>
<polygon fill="#000000" stroke="#000000" points="765.0908,-160.5001 775.0908,-157 765.0907,-153.5001 765.0908,-160.5001"/>
</g>
<!-- ResumeModule -->
<g id="node10" class="node">
<title>ResumeModule</title>
<polygon fill="#8dd3c7" stroke="#000000" points="636.1514,-122 633.1514,-126 612.1514,-126 609.1514,-122 531.8486,-122 531.8486,-86 636.1514,-86 636.1514,-122"/>
<text text-anchor="middle" x="584" y="-99.8" font-family="Times,serif" font-size="14.00" fill="#000000">ResumeModule</text>
</g>
<!-- ResumeModule&#45;&gt;AppModule -->
<g id="edge9" class="edge">
<title>ResumeModule&#45;&gt;AppModule</title>
<path fill="none" stroke="#000000" d="M584,-122.0336C584,-139.0597 584,-162 584,-162 584,-162 765.0752,-162 765.0752,-162"/>
<polygon fill="#000000" stroke="#000000" points="765.0752,-165.5001 775.0752,-162 765.0751,-158.5001 765.0752,-165.5001"/>
</g>
<!-- AuthModule -->
<g id="node11" class="node">
<title>AuthModule</title>
<polygon fill="#8dd3c7" stroke="#000000" points="513.5482,-122 510.5482,-126 489.5482,-126 486.5482,-122 426.4518,-122 426.4518,-86 513.5482,-86 513.5482,-122"/>
<text text-anchor="middle" x="470" y="-99.8" font-family="Times,serif" font-size="14.00" fill="#000000">AuthModule</text>
</g>
<!-- AuthModule&#45;&gt;AppModule -->
<g id="edge10" class="edge">
<title>AuthModule&#45;&gt;AppModule</title>
<path fill="none" stroke="#000000" d="M470,-122.2222C470,-140.8285 470,-167 470,-167 470,-167 765.1437,-167 765.1437,-167"/>
<polygon fill="#000000" stroke="#000000" points="765.1437,-170.5001 775.1437,-167 765.1437,-163.5001 765.1437,-170.5001"/>
</g>
<!-- UserService -->
<g id="node13" class="node">
<title>UserService</title>
<ellipse fill="#fdb462" stroke="#000000" cx="344" cy="-104" rx="58.4415" ry="18"/>
<text text-anchor="middle" x="344" y="-99.8" font-family="Times,serif" font-size="14.00" fill="#000000">UserService</text>
</g>
<!-- UserService&#45;&gt;AppModule -->
<g id="edge12" class="edge">
<title>UserService&#45;&gt;AppModule</title>
<path fill="none" stroke="#000000" d="M344,-122.2228C344,-142.3652 344,-172 344,-172 344,-172 765.0244,-172 765.0244,-172"/>
<polygon fill="#000000" stroke="#000000" points="765.0244,-175.5001 775.0244,-172 765.0244,-168.5001 765.0244,-175.5001"/>
</g>
<!-- UtilsService -->
<g id="node14" class="node">
<title>UtilsService</title>
<ellipse fill="#fdb462" stroke="#000000" cx="209" cy="-104" rx="58.5405" ry="18"/>
<text text-anchor="middle" x="209" y="-99.8" font-family="Times,serif" font-size="14.00" fill="#000000">UtilsService</text>
</g>
<!-- UtilsService&#45;&gt;AppModule -->
<g id="edge13" class="edge">
<title>UtilsService&#45;&gt;AppModule</title>
<path fill="none" stroke="#000000" d="M209,-122.0449C209,-143.6623 209,-177 209,-177 209,-177 765.2097,-177 765.2097,-177"/>
<polygon fill="#000000" stroke="#000000" points="765.2097,-180.5001 775.2097,-177 765.2097,-173.5001 765.2097,-180.5001"/>
</g>
<!-- AuthGuard -->
<g id="node15" class="node">
<title>AuthGuard</title>
<ellipse fill="#fdb462" stroke="#000000" cx="78" cy="-104" rx="54.4566" ry="18"/>
<text text-anchor="middle" x="78" y="-99.8" font-family="Times,serif" font-size="14.00" fill="#000000">AuthGuard</text>
</g>
<!-- AuthGuard&#45;&gt;AppModule -->
<g id="edge14" class="edge">
<title>AuthGuard&#45;&gt;AppModule</title>
<path fill="none" stroke="#000000" d="M78,-122.0908C78,-145.1328 78,-182 78,-182 78,-182 765.1508,-182 765.1508,-182"/>
<polygon fill="#000000" stroke="#000000" points="765.1508,-185.5001 775.1508,-182 765.1507,-178.5001 765.1508,-185.5001"/>
</g>
</g>
</svg>
