<?xml version="1.0" encoding="UTF-8" standalone="no"?>
<!DOCTYPE svg PUBLIC "-//W3C//DTD SVG 1.1//EN"
 "http://www.w3.org/Graphics/SVG/1.1/DTD/svg11.dtd">
<!-- Generated by graphviz version 2.40.1 (20161225.0304)
 -->
<!-- Title: dependencies Pages: 1 -->
<svg width="917pt" height="211pt"
 viewBox="0.00 0.00 917.00 211.00" xmlns="http://www.w3.org/2000/svg" xmlns:xlink="http://www.w3.org/1999/xlink">
<g id="graph0" class="graph" transform="scale(1 1) rotate(0) translate(4 207)">
<title>dependencies</title>
<polygon fill="#ffffff" stroke="transparent" points="-4,4 -4,-207 913,-207 913,4 -4,4"/>
<text text-anchor="start" x="433.5091" y="-42.4" font-family="sans-serif" font-weight="bold" font-size="14.00" fill="#000000">Legend</text>
<polygon fill="#ffffb3" stroke="transparent" points="220.5,-10 220.5,-30 240.5,-30 240.5,-10 220.5,-10"/>
<text text-anchor="start" x="244.129" y="-15.4" font-family="sans-serif" font-size="14.00" fill="#000000"> &#160;Declarations</text>
<polygon fill="#8dd3c7" stroke="transparent" points="333.5,-10 333.5,-30 353.5,-30 353.5,-10 333.5,-10"/>
<text text-anchor="start" x="357.2251" y="-15.4" font-family="sans-serif" font-size="14.00" fill="#000000"> &#160;Module</text>
<polygon fill="#80b1d3" stroke="transparent" points="419.5,-10 419.5,-30 439.5,-30 439.5,-10 419.5,-10"/>
<text text-anchor="start" x="443.2812" y="-15.4" font-family="sans-serif" font-size="14.00" fill="#000000"> &#160;Bootstrap</text>
<polygon fill="#fdb462" stroke="transparent" points="516.5,-10 516.5,-30 536.5,-30 536.5,-10 516.5,-10"/>
<text text-anchor="start" x="540.1732" y="-15.4" font-family="sans-serif" font-size="14.00" fill="#000000"> &#160;Providers</text>
<polygon fill="#fb8072" stroke="transparent" points="612.5,-10 612.5,-30 632.5,-30 632.5,-10 612.5,-10"/>
<text text-anchor="start" x="636.2258" y="-15.4" font-family="sans-serif" font-size="14.00" fill="#000000"> &#160;Exports</text>
<g id="clust1" class="cluster">
<title>cluster_FacesModule</title>
<polygon fill="none" stroke="#000000" stroke-dasharray="1,5" points="8,-70 8,-195 901,-195 901,-70 8,-70"/>
</g>
<g id="clust2" class="cluster">
<title>cluster_FacesModule_declarations</title>
<polygon fill="none" stroke="#000000" points="585,-78 585,-130 893,-130 893,-78 585,-78"/>
</g>
<g id="clust5" class="cluster">
<title>cluster_FacesModule_imports</title>
<polygon fill="none" stroke="#000000" points="16,-78 16,-130 577,-130 577,-78 16,-78"/>
</g>
<!-- FacesPageComponent -->
<g id="node1" class="node">
<title>FacesPageComponent</title>
<polygon fill="#ffffb3" stroke="#000000" points="885.4158,-122 744.5842,-122 744.5842,-86 885.4158,-86 885.4158,-122"/>
<text text-anchor="middle" x="815" y="-99.8" font-family="Times,serif" font-size="14.00" fill="#000000">FacesPageComponent</text>
</g>
<!-- FacesModule -->
<g id="node3" class="node">
<title>FacesModule</title>
<polygon fill="#8dd3c7" stroke="#000000" points="494.9218,-187 491.9218,-191 470.9218,-191 467.9218,-187 403.0782,-187 403.0782,-151 494.9218,-151 494.9218,-187"/>
<text text-anchor="middle" x="449" y="-164.8" font-family="Times,serif" font-size="14.00" fill="#000000">FacesModule</text>
</g>
<!-- FacesPageComponent&#45;&gt;FacesModule -->
<g id="edge1" class="edge">
<title>FacesPageComponent&#45;&gt;FacesModule</title>
<path fill="none" stroke="#000000" d="M815,-122.2843C815,-143.3211 815,-175 815,-175 815,-175 504.9836,-175 504.9836,-175"/>
<polygon fill="#000000" stroke="#000000" points="504.9836,-171.5001 494.9836,-175 504.9835,-178.5001 504.9836,-171.5001"/>
</g>
<!-- FaceItemComponent -->
<g id="node2" class="node">
<title>FaceItemComponent</title>
<polygon fill="#ffffb3" stroke="#000000" points="726.9158,-122 593.0842,-122 593.0842,-86 726.9158,-86 726.9158,-122"/>
<text text-anchor="middle" x="660" y="-99.8" font-family="Times,serif" font-size="14.00" fill="#000000">FaceItemComponent</text>
</g>
<!-- FaceItemComponent&#45;&gt;FacesModule -->
<g id="edge2" class="edge">
<title>FaceItemComponent&#45;&gt;FacesModule</title>
<path fill="none" stroke="#000000" d="M660,-122.0225C660,-139.3734 660,-163 660,-163 660,-163 504.7839,-163 504.7839,-163"/>
<polygon fill="#000000" stroke="#000000" points="504.7839,-159.5001 494.7839,-163 504.7838,-166.5001 504.7839,-159.5001"/>
</g>
<!-- CommonModule -->
<g id="node4" class="node">
<title>CommonModule</title>
<polygon fill="#8dd3c7" stroke="#000000" points="568.6681,-122 565.6681,-126 544.6681,-126 541.6681,-122 457.3319,-122 457.3319,-86 568.6681,-86 568.6681,-122"/>
<text text-anchor="middle" x="513" y="-99.8" font-family="Times,serif" font-size="14.00" fill="#000000">CommonModule</text>
</g>
<!-- CommonModule&#45;&gt;FacesModule -->
<g id="edge3" class="edge">
<title>CommonModule&#45;&gt;FacesModule</title>
<path fill="none" stroke="#000000" d="M475.9383,-122.1061C475.9383,-122.1061 475.9383,-140.991 475.9383,-140.991"/>
<polygon fill="#000000" stroke="#000000" points="472.4384,-140.9909 475.9383,-150.991 479.4384,-140.991 472.4384,-140.9909"/>
</g>
<!-- BrowserModule -->
<g id="node5" class="node">
<title>BrowserModule</title>
<polygon fill="#8dd3c7" stroke="#000000" points="439.4734,-122 436.4734,-126 415.4734,-126 412.4734,-122 332.5266,-122 332.5266,-86 439.4734,-86 439.4734,-122"/>
<text text-anchor="middle" x="386" y="-99.8" font-family="Times,serif" font-size="14.00" fill="#000000">BrowserModule</text>
</g>
<!-- BrowserModule&#45;&gt;FacesModule -->
<g id="edge4" class="edge">
<title>BrowserModule&#45;&gt;FacesModule</title>
<path fill="none" stroke="#000000" d="M421.3882,-122.1061C421.3882,-122.1061 421.3882,-140.991 421.3882,-140.991"/>
<polygon fill="#000000" stroke="#000000" points="417.8882,-140.9909 421.3882,-150.991 424.8882,-140.991 417.8882,-140.9909"/>
</g>
<!-- FormsModule -->
<g id="node6" class="node">
<title>FormsModule</title>
<polygon fill="#8dd3c7" stroke="#000000" points="314.8288,-122 311.8288,-126 290.8288,-126 287.8288,-122 219.1712,-122 219.1712,-86 314.8288,-86 314.8288,-122"/>
<text text-anchor="middle" x="267" y="-99.8" font-family="Times,serif" font-size="14.00" fill="#000000">FormsModule</text>
</g>
<!-- FormsModule&#45;&gt;FacesModule -->
<g id="edge5" class="edge">
<title>FormsModule&#45;&gt;FacesModule</title>
<path fill="none" stroke="#000000" d="M267,-122.0225C267,-139.3734 267,-163 267,-163 267,-163 393.0737,-163 393.0737,-163"/>
<polygon fill="#000000" stroke="#000000" points="393.0738,-166.5001 403.0737,-163 393.0737,-159.5001 393.0738,-166.5001"/>
</g>
<!-- RouterModule.forRoot(args) -->
<g id="node7" class="node">
<title>RouterModule.forRoot(args)</title>
<polygon fill="#8dd3c7" stroke="#000000" points="201.8419,-122 198.8419,-126 177.8419,-126 174.8419,-122 24.1581,-122 24.1581,-86 201.8419,-86 201.8419,-122"/>
<text text-anchor="middle" x="113" y="-99.8" font-family="Times,serif" font-size="14.00" fill="#000000">RouterModule.forRoot(args)</text>
</g>
<!-- RouterModule.forRoot(args)&#45;&gt;FacesModule -->
<g id="edge6" class="edge">
<title>RouterModule.forRoot(args)&#45;&gt;FacesModule</title>
<path fill="none" stroke="#000000" d="M113,-122.2843C113,-143.3211 113,-175 113,-175 113,-175 392.9852,-175 392.9852,-175"/>
<polygon fill="#000000" stroke="#000000" points="392.9852,-178.5001 402.9852,-175 392.9851,-171.5001 392.9852,-178.5001"/>
</g>
</g>
</svg>
